<svg xmlns="http://www.w3.org/2000/svg" width="24" height="24" viewBox="0 0 24 24"><path d="M17.822 23.297a6.644 6.644 0 00-.654.032c-1.104.1-2.451-.378-3.244-1.15a3.223 3.223 0 01-.52-.739c-.209-.425-.22-.489-.211-1.178a8.174 8.174 0 01.19-1.585c.243-1.151.155-1.449-.514-1.737-.4-.172-.632-.135-1 .16-.268.215-.28.463-.07 1.532.298 1.526.286 2.238-.05 2.907-.28.56-.443.703-1.287 1.133-1.005.513-1.461.638-2.332.638-.73 0-1.014-.082-1.276-.366-.134-.145-.148-.2-.085-.32.099-.184.329-.3.959-.488.277-.082.604-.236.727-.341.123-.105.329-.265.457-.354.32-.222.562-.761.563-1.254 0-.331-.188-1.034-.45-1.676-.138-.338-.38.085-.38.666 0 .434-.673 1.569-.93 1.569-.048 0-.288.101-.532.225-.43.219-.47.225-1.31.225-.815 0-.889-.011-1.235-.194-.42-.22-.902-.694-1.094-1.073a2.752 2.752 0 00-.227-.377c-.083-.102-.08-.143.018-.293.206-.314.473-.317 1.186-.011.583.25 1.22.215 1.582-.086.168-.139.325-.697.342-1.217.02-.598-.049-.66-.596-.528-.86.206-1.762-.084-2.76-.887-.916-.739-1.362-.845-2.241-.538-.262.092-.51.153-.552.137-.042-.016-.134-.136-.204-.268-.118-.218-.12-.252-.02-.403.156-.24.714-.573 1.185-.708.297-.086.588-.11 1.076-.09.655.026.687.035 1.567.458.54.259.99.43 1.127.43.27 0 1.014-.37 1.159-.577.167-.238.124-.34-.322-.776-1.19-1.16-1.943-2.608-2.24-4.31-.124-.702-.14-1.888-.035-2.483.116-.656.677-2.273.915-2.64.385-.59 1.823-1.965 2.585-2.469C9.187.905 11.43.395 13.715.785c2.457.42 4.507 1.61 5.849 3.394 1.062 1.414 1.554 2.859 1.553 4.57 0 1.778-.497 3.238-1.599 4.693a6.207 6.207 0 00-.34.476c0 .013.205.12.456.238.737.345 1.169.844 1.726 1.994.256.527.531 1.031.613 1.12.225.247.614.42 1.099.49.588.085.804.178.9.388.109.24-.111.55-.402.563-.11.005-.394.033-.63.062-.887.107-1.851-.251-2.416-.898-.17-.193-.503-.616-.74-.939-.455-.616-.818-.922-1.054-.888-.117.017-.14.066-.127.28.008.142.068.34.133.438.09.137.127.412.161 1.196.05 1.153.147 1.458.55 1.726.306.204.552.198 1.11-.025.581-.233.923-.238 1.159-.018.243.227.2.637-.11 1.026-.33.419-1.338.899-2.001.954-1.194.1-2.371-.602-2.828-1.686-.062-.147-.197-.61-.301-1.03-.12-.486-.221-.762-.28-.762-.109 0-.263.401-.27.705-.003.12-.056.417-.118.657-.328 1.282.307 2.309 1.66 2.684.657.182.808.299.808.623 0 .319-.165.494-.454.481z"/></svg>