<?xml version="1.0" encoding="UTF-8" standalone="no"?>
<svg
   xmlns:dc="http://purl.org/dc/elements/1.1/"
   xmlns:cc="http://creativecommons.org/ns#"
   xmlns:rdf="http://www.w3.org/1999/02/22-rdf-syntax-ns#"
   xmlns:svg="http://www.w3.org/2000/svg"
   xmlns="http://www.w3.org/2000/svg"
   width="24"
   height="24"
   viewBox="0 0 24 24"
   version="1.1"
   id="svg8">
  <defs
     id="defs2" />
  <metadata
     id="metadata5">
    <rdf:RDF>
      <cc:Work
         rdf:about="">
        <dc:format>image/svg+xml</dc:format>
        <dc:type
           rdf:resource="http://purl.org/dc/dcmitype/StillImage" />
        <dc:title></dc:title>
      </cc:Work>
    </rdf:RDF>
  </metadata>
  <g
     id="layer1">
    <g
       id="g6"
       transform="matrix(0.09375,0,0,0.09375,-0.23004888,-1.8105832)">
      <path
         id="rect2"
         style="fill:#00000f;fill-opacity:1;stroke-width:1"
         d="M 2.4538495,19.312886 V 275.31289 H 258.45386 V 19.312886 Z M 77.891354,81.750389 h 20.08333 l 25.833326,52.083331 c 0.39766,0.92786 0.86563,1.9017 1.39583,2.89583 0.53021,0.99415 0.99819,2.00209 1.39584,3.06251 0.26511,0.39766 0.47162,0.77279 0.60416,1.10417 0.13257,0.33137 0.26329,0.63072 0.39584,0.89583 0.66278,1.3255 1.26146,2.61575 1.79168,3.875 0.5302,1.25924 0.97735,2.41876 1.375,3.47916 1.06042,-2.25337 2.21993,-4.66523 3.47917,-7.24999 1.25923,-2.58477 2.57031,-5.27891 3.89583,-8.06251 l 26.22917,-52.083331 h 18.6875 L 138.7247,165.06289 v 53.08334 h -16.89585 v -54.08334 z" />
    </g>
  </g>
</svg>
