<?xml version="1.0" encoding="UTF-8" standalone="no"?>
<svg
   xmlns:dc="http://purl.org/dc/elements/1.1/"
   xmlns:cc="http://creativecommons.org/ns#"
   xmlns:rdf="http://www.w3.org/1999/02/22-rdf-syntax-ns#"
   xmlns:svg="http://www.w3.org/2000/svg"
   xmlns="http://www.w3.org/2000/svg"
   xmlns:sodipodi="http://sodipodi.sourceforge.net/DTD/sodipodi-0.dtd"
   xmlns:inkscape="http://www.inkscape.org/namespaces/inkscape"
   width="24"
   height="24"
   viewBox="0 0 24 24"
   version="1.1"
   id="svg8"
   inkscape:version="1.0.2 (e86c870879, 2021-01-15)"
   sodipodi:docname="journal-du-hacker.svg">
  <defs
     id="defs2" />
  <sodipodi:namedview
     id="base"
     pagecolor="#ffffff"
     bordercolor="#666666"
     borderopacity="1.0"
     inkscape:pageopacity="0.0"
     inkscape:pageshadow="2"
     inkscape:zoom="11.2"
     inkscape:cx="-9.807791"
     inkscape:cy="17.035837"
     inkscape:document-units="px"
     inkscape:current-layer="layer2"
     inkscape:document-rotation="0"
     showgrid="false"
     units="px"
     inkscape:window-width="1920"
     inkscape:window-height="1019"
     inkscape:window-x="0"
     inkscape:window-y="33"
     inkscape:window-maximized="1" />
  <metadata
     id="metadata5">
    <rdf:RDF>
      <cc:Work
         rdf:about="">
        <dc:format>image/svg+xml</dc:format>
        <dc:type
           rdf:resource="http://purl.org/dc/dcmitype/StillImage" />
        <dc:title />
      </cc:Work>
    </rdf:RDF>
  </metadata>
  <g
     inkscape:groupmode="layer"
     id="layer2"
     inkscape:label="Calque 2">
    <path
       style="fill:#000000;stroke-width:0.0692951;fill-opacity:1"
       d="m 17.822421,23.297446 h 1e-5 c -0.11238,-0.005 -0.40701,0.009 -0.65474,0.0316 -1.1033,0.0994 -2.45088,-0.37812 -3.24327,-1.1494 -0.16402,-0.15965 -0.39789,-0.49243 -0.51971,-0.7395 -0.20945,-0.42483 -0.22097,-0.48882 -0.21207,-1.17802 0.006,-0.48821 0.0691,-1.01138 0.19009,-1.58483 0.24302,-1.15157 0.15493,-1.44929 -0.51392,-1.73703 -0.40013,-0.17213 -0.63196,-0.13522 -0.99941,0.15911 -0.26872,0.21524 -0.28019,0.46373 -0.0708,1.53312 0.29869,1.5253 0.28659,2.23719 -0.0494,2.90663 -0.28102,0.55997 -0.44282,0.70244 -1.28675,1.13309 -1.0050202,0.51286 -1.4617002,0.63771 -2.3327302,0.63771 -0.72886,0 -1.01402,-0.0817 -1.27566,-0.36566 -0.13392,-0.14532 -0.14852,-0.20055 -0.0846,-0.32004 0.0984,-0.18389 0.32824,-0.30095 0.9581,-0.488 0.27723,-0.0823 0.60445,-0.2358 0.7276,-0.34124 0.12309,-0.1054 0.32876,-0.2645 0.45703,-0.35356 0.31993,-0.22211 0.5622,-0.76163 0.56299,-1.25411 5.3e-4,-0.33164 -0.18796,-1.03429 -0.44975,-1.67608 -0.13801,-0.33833 -0.37994,0.0845 -0.38073,0.66556 -5.3e-4,0.43444 -0.67275,1.56921 -0.92944,1.56921 -0.0485,0 -0.28811,0.10134 -0.5324,0.22521 -0.4307,0.21837 -0.47042,0.2252 -1.31035,0.2252 -0.81474,0 -0.88807,-0.0115 -1.23443,-0.19397 -0.41982,-0.22115 -0.90251,-0.69456 -1.09402,-1.07297 -0.0717,-0.14165 -0.17369,-0.31132 -0.22669,-0.37704 -0.0829,-0.1028 -0.0804,-0.14379 0.0176,-0.2934 0.20584,-0.31415 0.47287,-0.31663 1.18628,-0.011 0.58268,0.2496 1.2193,0.21501 1.58194,-0.086 0.16751,-0.13901 0.32436,-0.69695 0.34217,-1.21714 0.0205,-0.5976 -0.049,-0.65906 -0.59636,-0.52774 -0.85913,0.2061 -1.76239,-0.0844 -2.75936,-0.88753 -0.91632,-0.73815 -1.36223,-0.84504 -2.24189002,-0.53743 -0.26133,0.0914 -0.50949,0.15297 -0.55147,0.13687 -0.042,-0.0161 -0.13408,-0.13654 -0.20468,-0.26764 -0.11764,-0.21844 -0.11933,-0.25212 -0.0202,-0.40335 0.15697,-0.23956 0.71506,-0.57303 1.18519002,-0.70815 0.29777,-0.0856 0.58846,-0.11 1.07641,-0.0904 0.65454,0.0263 0.68719,0.0358 1.56703,0.4581 0.54037,0.25934 0.98944,0.43125 1.12654,0.43125 0.2709,0 1.01415,-0.3703 1.15935,-0.57762 0.16678,-0.2381 0.12407,-0.34107 -0.32176,-0.77581 -1.1907,-1.16107 -1.94324,-2.60835 -2.24081,-4.3094997 -0.12305,-0.70343 -0.13931,-1.88931 -0.0341,-2.48385 0.11618,-0.65629 0.67665,-2.27314 0.91497,-2.6395 0.38465,-0.59129 1.8229,-1.96539 2.58482,-2.4695 2.09772,-1.38794005 4.3411902,-1.89854005 6.6257502,-1.50798005 2.45703,0.42005005 4.50761,1.61006005 5.84872,3.39417005 1.0628,1.41388 1.55404,2.85832 1.55383,4.56899 -2.1e-4,1.7784797 -0.49775,3.2391497 -1.59887,4.6939297 -0.18772,0.24801 -0.3413,0.46193 -0.3413,0.47537 0,0.0134 0.20572,0.12071 0.45715,0.23837 0.73661,0.3447 1.16843,0.84361 1.72595,1.99414 0.2553,0.52686 0.53119,1.03112 0.61307,1.12058 0.22505,0.24588 0.61394,0.41903 1.09863,0.48914 0.58792,0.085 0.80375,0.17821 0.89945,0.38824 0.10949,0.2403 -0.11092,0.54947 -0.40156,0.56327 -0.11018,0.005 -0.39395,0.0329 -0.63059,0.0615 -0.88625,0.10718 -1.85065,-0.25109 -2.41552,-0.89735 -0.16909,-0.19345 -0.50226,-0.61604 -0.74039,-0.93909 -0.45455,-0.61667 -0.81689,-0.922 -1.05385,-0.88805 -0.11674,0.0167 -0.13872,0.0653 -0.1262,0.27921 0.008,0.14243 0.0679,0.33953 0.13247,0.43801 0.0904,0.13794 0.12745,0.41259 0.16149,1.19635 0.0501,1.15325 0.1472,1.45811 0.55,1.72641 0.3056,0.20353 0.5521,0.19782 1.11037,-0.0257 0.58035,-0.2324 0.92258,-0.23756 1.15819,-0.0175 0.24308,0.22707 0.19954,0.63652 -0.10913,1.02625 -0.33133,0.41834 -1.33869,0.89827 -2.00218,0.9539 -1.19338,0.10005 -2.37066,-0.60194 -2.82759,-1.68604 -0.062,-0.14704 -0.19741,-0.61035 -0.30098,-1.02959 -0.12028,-0.48693 -0.22112,-0.76224 -0.27917,-0.76224 -0.10962,0 -0.26393,0.40091 -0.27121,0.70468 -0.003,0.12078 -0.0557,0.41654 -0.11739,0.65724 -0.3284,1.28186 0.30685,2.30859 1.66061,2.68397 0.65626,0.18198 0.80754,0.29858 0.80754,0.62239 0,0.31922 -0.16519,0.49451 -0.45398,0.48176 z"
       id="path953"
       sodipodi:nodetypes="sssssssssssssssssssscsssssssssssssssssssssssssssssssssssssssssssssssssssssssss" />
  </g>
</svg>
